<svg width="2223" height="2498" viewBox="0 0 2223 2498" fill="none" xmlns="http://www.w3.org/2000/svg">
<path d="M1070.6 139.25C1067 139.517 1055.26 140.317 1044.6 141.117C890.197 152.45 738.464 208.184 611.264 300.317C536.464 354.584 469.931 421.517 415.931 497.25C243.931 738.317 209.931 1053.12 326.197 1326.72C336.197 1350.18 357.131 1392.18 369.931 1414.45C470.597 1589.65 626.864 1722.18 815.664 1792.32C938.731 1838.05 1073.93 1854.45 1205.93 1839.78C1379.53 1820.32 1540.33 1749.52 1673.26 1633.92C1706.33 1605.12 1750.73 1558.58 1780.06 1521.65C1985.26 1264.05 2022.6 906.184 1875.13 611.517C1770.73 402.85 1587.13 246.45 1365.26 176.984C1308.2 159.117 1250.86 147.784 1186.6 141.65C1166.6 139.784 1085.8 138.05 1070.6 139.25ZM1178.73 301.65C1242.6 308.45 1300.73 322.05 1356.6 343.384C1597.66 435.517 1768.06 652.45 1799.26 906.984C1829.66 1154.98 1725.53 1397.78 1524.06 1548.32C1442.86 1608.98 1346.6 1651.78 1246.6 1671.65C1197.26 1681.52 1167.26 1684.32 1111.26 1684.32C1054.2 1684.32 1024.46 1681.38 973.264 1671.12C682.331 1612.32 459.397 1371.38 423.264 1076.58C384.331 759.65 566.597 457.784 865.931 343.384C932.197 318.05 992.997 305.25 1075.93 299.25C1090.6 298.184 1161.13 299.784 1178.73 301.65Z" fill="white"/>
<path d="M1051.93 315.117C968.331 322.85 891.931 343.784 817.264 379.65C679.531 445.917 566.331 558.85 499.931 696.45C462.331 774.317 440.598 854.85 433.931 940.984C432.198 964.05 432.198 1019.52 433.931 1042.58C441.798 1143.52 472.064 1242.45 521.931 1329.12C564.064 1402.45 623.931 1471.78 690.598 1524.58C796.597 1608.58 926.064 1658.98 1061.93 1669.12C1085.13 1670.85 1137.4 1670.85 1160.6 1669.12C1284.2 1659.92 1402.73 1617.38 1502.6 1546.45C1596.2 1479.92 1670.33 1392.98 1720.6 1291.12C1756.46 1218.18 1777.8 1144.05 1787.26 1059.12C1789.66 1037.92 1790.46 968.317 1788.73 943.517C1772.06 716.317 1644.73 514.717 1445.93 400.984C1361.8 352.85 1268.33 323.917 1169 315.117C1141.66 312.717 1078.46 312.717 1051.93 315.117Z" fill="white"/>
<g filter="url(#filter0_d_5_34)">
<path d="M809.918 99.1184C810.106 135.139 811.044 208.681 811.982 262.337C812.92 315.993 814.608 411.297 815.734 474.333C817.985 591.775 818.735 606.034 824.176 618.791L809.918 99.1184ZM809.918 99.1184C809.73 31.2046 808.792 13.5695 805.228 12.4438L809.918 99.1184ZM823.714 618.983C823.715 618.984 823.716 618.986 823.716 618.987L826.714 626.481L827.027 627.263L827.563 626.614L831.126 622.3L823.714 618.983ZM823.714 618.983C820.96 612.523 819.409 605.696 818.26 585.848C817.11 565.996 816.359 533.059 815.234 474.343L815.688 474.334L815.234 474.342C814.108 411.306 812.42 316.001 811.482 262.346C810.544 208.689 809.606 135.145 809.418 99.1211C809.324 65.1603 809.043 43.7861 808.34 30.7625C807.988 24.2466 807.532 19.8459 806.948 17.0121C806.656 15.5933 806.337 14.5968 805.999 13.9323C805.659 13.2637 805.339 13.0039 805.079 12.9213C804.934 12.877 804.783 12.8872 804.583 13.0197C804.361 13.1667 804.091 13.4602 803.779 13.975C803.158 15.002 802.469 16.7441 801.673 19.3887C800.086 24.6635 798.12 33.3654 795.399 46.6884L795.399 46.6895C791.847 63.8883 791.47 76.2004 789.969 203.246C788.562 317.219 786.92 406.477 785.02 471.252C783.121 536.012 780.963 576.336 778.519 592.413L778.025 592.338L778.519 592.414C777.156 601.299 775.353 608.288 773.133 613.352C770.919 618.399 768.249 621.625 765.093 622.823C761.901 624.034 758.382 623.113 754.638 620.28C750.897 617.449 746.849 612.656 742.522 605.929L742.518 605.923L737.828 598.419L737.75 598.295L737.752 598.149L740.003 376.772C741.316 255.017 743.005 133.817 743.756 107.359L743.756 107.357C744.6 81.7556 744.646 59.5835 744.037 43.3708C743.732 35.2632 743.264 28.6552 742.651 23.8574C742.345 21.4574 742.003 19.5225 741.632 18.0842C741.446 17.365 741.256 16.7802 741.062 16.3281C740.866 15.8687 740.682 15.5807 740.525 15.4238C740.168 15.067 739.83 14.861 739.515 14.7686C739.206 14.6782 738.888 14.6875 738.544 14.811C737.827 15.0685 736.988 15.8276 736.041 17.2472C734.162 20.0667 732.068 25.1648 729.724 32.667C728.425 36.8884 726.999 45.0775 725.451 57.327C723.905 69.5653 722.24 85.8214 720.458 106.151C716.894 146.808 712.861 203.741 708.359 277.375C706.858 303.079 703.481 355.986 700.854 394.634C689.597 563.297 691.106 646.523 706.47 710.602L706.47 710.604C714.713 745.635 725.566 769.004 742.946 789.187C779.226 831.295 801.214 884.487 806.851 943.304C807.182 946.755 807.463 960.493 807.701 984.307C807.938 1008.14 808.131 1042.09 808.284 1086C808.589 1173.83 808.729 1301.49 808.729 1467.71V1970.96L820.822 1971.5L820.822 1971.5L820.825 1971.5C827.928 1971.88 837.088 1971.5 841.369 1970.94C841.37 1970.94 841.37 1970.94 841.371 1970.94L849.004 1969.88L849.566 1450.27L850.129 930.219L850.129 930.164L850.141 930.111L854.08 912.289L854.081 912.286C865.352 862.319 883.581 823.969 911.221 791.628L911.223 791.625C935.344 763.764 947.513 734.22 955.758 683.435L955.759 683.433C964.941 628.713 965.508 534.208 957.816 419.022L957.718 417.513C955.618 385.441 951.391 320.884 948.436 272.686C942.995 187.137 939.103 131.518 935.797 94.8248C932.49 58.1173 929.773 40.3958 926.696 30.606C925.338 26.3441 924.124 22.925 923.01 20.2925C921.892 17.6503 920.89 15.8389 919.968 14.7622C919.046 13.6841 918.317 13.4601 917.689 13.6519C916.974 13.8704 916.154 14.6765 915.221 16.2618C915.06 16.538 914.886 17.0042 914.716 17.7075C914.547 18.4028 914.388 19.2988 914.24 20.4137C913.943 22.6432 913.695 25.7164 913.496 29.7489C913.098 37.812 912.898 49.6741 912.898 66.2168C912.898 99.3002 913.696 151.075 915.29 228.557L915.29 228.559C916.416 291.41 917.542 400.788 917.542 471.707V600.405V600.555L917.459 600.681L911.643 609.498L911.641 609.502C908.146 614.697 904.346 618.604 900.724 620.835C897.114 623.058 893.578 623.67 890.723 622.043C889.238 621.271 887.822 619.612 886.501 617.336C885.168 615.039 883.895 612.05 882.728 608.536C880.393 601.508 878.464 592.327 877.335 582.264C874.142 554.281 871.891 485.962 869.64 357.087C867.107 206.061 865.841 131.679 864.669 92.5203C863.535 54.6458 862.489 49.7557 860.477 40.3445L860.27 39.3759L860.724 39.2793L860.27 39.3751C857.831 27.8365 855.821 20.0856 854.148 15.6938C853.731 14.5983 853.339 13.723 852.971 13.0553C852.6 12.3805 852.271 11.9503 851.993 11.7135C851.723 11.4836 851.567 11.4855 851.474 11.5132C851.342 11.5529 851.129 11.7061 850.87 12.1382C850.367 12.9757 849.941 14.0774 849.573 18.0044C849.205 21.9277 848.901 28.6011 848.596 40.5273C847.986 64.3729 847.377 109.16 846.251 194.805C844.562 325.381 842.311 454.269 839.872 561.582C839.403 581.001 838.652 594.441 837.311 603.876C835.972 613.298 834.034 618.81 831.128 622.299L823.714 618.983Z" fill="black" stroke="black"/>
<path d="M1320.82 14.2355L1320.82 14.235C1328.68 10.8125 1336.23 10.6372 1343.25 13.5122C1350.28 16.3925 1356.82 22.3564 1362.6 31.3059L1320.82 14.2355ZM1320.82 14.2355C1317.1 15.8413 1312.84 19.0635 1308.36 23.4835C1303.88 27.8973 1299.22 33.4794 1294.69 39.7708C1285.64 52.3552 1277.17 67.7454 1271.94 82.2355C1253.57 133.022 1236.13 221.518 1205.55 420.96C1184.16 560.349 1180.23 595.405 1178.73 661.408C1176.48 767.716 1190.72 827.263 1234.17 891.875C1254.41 921.862 1271.64 941.332 1292.98 958.552C1307.14 969.9 1315.37 977.454 1320.58 986.123C1325.8 994.8 1327.96 1004.55 1330.12 1020.22C1332.38 1036.21 1333.74 1069.73 1334.56 1149.01C1335.38 1228.3 1335.66 1353.39 1335.75 1552.53V1970.96H1352.14H1368.52V1005.84V40.563L1362.6 31.3076L1320.82 14.2355Z" fill="black" stroke="black"/>
</g>
<path d="M412.031 2338.65C439.365 2338.65 468.198 2327.82 498.531 2306.15L499.031 2306.65C485.698 2323.65 469.365 2336.82 450.031 2346.15C431.031 2355.15 410.865 2359.65 389.531 2359.65H383.031C369.698 2358.65 357.365 2355.65 346.031 2350.65C334.698 2345.32 324.531 2338.49 315.531 2330.15C306.531 2321.82 298.698 2312.15 292.031 2301.15C285.698 2290.15 280.531 2278.49 276.531 2266.15C270.531 2246.49 268.531 2226.49 270.531 2206.15C272.198 2189.49 276.698 2174.32 284.031 2160.65C291.365 2146.65 300.698 2134.65 312.031 2124.65C323.698 2114.65 336.865 2106.99 351.531 2101.65C366.198 2095.99 381.698 2093.15 398.031 2093.15C414.031 2093.15 428.865 2095.99 442.531 2101.65C456.198 2106.99 468.031 2114.82 478.031 2125.15C499.365 2146.49 509.531 2175.49 508.531 2212.15V2212.65H302.031C302.031 2227.99 304.531 2243.32 309.531 2258.65C314.865 2273.65 322.365 2287.15 332.031 2299.15C341.698 2310.82 353.198 2320.32 366.531 2327.65C380.198 2334.99 395.365 2338.65 412.031 2338.65ZM479.531 2197.65C478.531 2180.32 475.365 2165.65 470.031 2153.65C464.698 2141.65 458.198 2131.99 450.531 2124.65C442.865 2116.99 434.365 2111.49 425.031 2108.15C415.698 2104.82 406.698 2103.15 398.031 2103.15C387.698 2103.15 377.198 2105.15 366.531 2109.15C356.198 2113.15 346.531 2119.15 337.531 2127.15C328.865 2135.15 321.365 2144.99 315.031 2156.65C309.031 2168.32 305.031 2181.99 303.031 2197.65H479.531ZM579.691 2188.15C587.358 2194.49 596.191 2199.65 606.191 2203.65C616.525 2207.32 626.858 2211.15 637.191 2215.15C644.858 2218.15 652.525 2221.32 660.191 2224.65C667.858 2227.99 675.025 2231.65 681.691 2235.65C688.691 2239.65 694.858 2244.15 700.191 2249.15C705.525 2253.82 709.858 2259.32 713.191 2265.65C719.858 2278.99 721.858 2291.99 719.191 2304.65C716.525 2317.32 709.358 2327.99 697.691 2336.65C687.691 2344.32 675.525 2350.32 661.191 2354.65C646.858 2358.65 631.691 2360.65 615.691 2360.65C586.025 2360.65 558.858 2352.15 534.191 2335.15H533.691V2295.15L534.691 2296.65C545.358 2312.65 558.025 2325.82 572.691 2336.15C587.691 2346.15 605.025 2351.15 624.691 2351.15C636.691 2351.15 648.358 2349.15 659.691 2345.15C671.025 2340.82 680.691 2334.99 688.691 2327.65C699.358 2318.65 704.358 2308.65 703.691 2297.65C703.358 2287.99 697.025 2278.65 684.691 2269.65C676.025 2262.99 666.191 2257.65 655.191 2253.65C644.191 2249.65 633.191 2245.82 622.191 2242.15C612.191 2239.15 602.691 2235.99 593.691 2232.65C585.025 2228.99 577.025 2224.65 569.691 2219.65C562.358 2214.65 555.858 2208.65 550.191 2201.65C544.858 2194.32 540.525 2185.32 537.191 2174.65C534.191 2163.99 533.525 2153.32 535.191 2142.65C537.191 2132.65 541.025 2123.99 546.691 2116.65C552.358 2109.32 559.025 2103.32 566.691 2098.65C574.691 2093.65 583.358 2090.15 592.691 2088.15C602.358 2085.82 611.858 2084.65 621.191 2084.65C635.858 2084.65 650.525 2086.99 665.191 2091.65C680.191 2095.99 693.691 2102.32 705.691 2110.65V2150.65L704.691 2149.15C700.025 2142.15 694.191 2135.32 687.191 2128.65C680.525 2121.99 673.191 2116.15 665.191 2111.15C657.191 2105.82 648.691 2101.65 639.691 2098.65C630.691 2095.65 621.525 2094.15 612.191 2094.15C606.191 2094.15 599.858 2095.15 593.191 2097.15C586.525 2098.82 580.358 2101.49 574.691 2105.15C569.358 2108.49 564.858 2112.82 561.191 2118.15C557.525 2123.49 555.525 2129.65 555.191 2136.65C554.858 2157.65 563.025 2174.82 579.691 2188.15ZM888.105 2338.65C915.439 2338.65 944.272 2327.82 974.605 2306.15L975.105 2306.65C961.772 2323.65 945.439 2336.82 926.105 2346.15C907.105 2355.15 886.939 2359.65 865.605 2359.65H859.105C845.772 2358.65 833.439 2355.65 822.105 2350.65C810.772 2345.32 800.605 2338.49 791.605 2330.15C782.605 2321.82 774.772 2312.15 768.105 2301.15C761.772 2290.15 756.605 2278.49 752.605 2266.15C746.605 2246.49 744.605 2226.49 746.605 2206.15C748.272 2189.49 752.772 2174.32 760.105 2160.65C767.439 2146.65 776.772 2134.65 788.105 2124.65C799.772 2114.65 812.939 2106.99 827.605 2101.65C842.272 2095.99 857.772 2093.15 874.105 2093.15C890.105 2093.15 904.939 2095.99 918.605 2101.65C932.272 2106.99 944.105 2114.82 954.105 2125.15C975.439 2146.49 985.605 2175.49 984.605 2212.15V2212.65H778.105C778.105 2227.99 780.605 2243.32 785.605 2258.65C790.939 2273.65 798.439 2287.15 808.105 2299.15C817.772 2310.82 829.272 2320.32 842.605 2327.65C856.272 2334.99 871.439 2338.65 888.105 2338.65ZM955.605 2197.65C954.605 2180.32 951.439 2165.65 946.105 2153.65C940.772 2141.65 934.272 2131.99 926.605 2124.65C918.939 2116.99 910.439 2111.49 901.105 2108.15C891.772 2104.82 882.772 2103.15 874.105 2103.15C863.772 2103.15 853.272 2105.15 842.605 2109.15C832.272 2113.15 822.605 2119.15 813.605 2127.15C804.939 2135.15 797.439 2144.99 791.105 2156.65C785.105 2168.32 781.105 2181.99 779.105 2197.65H955.605ZM1111.13 2126.65C1110.8 2126.32 1110.13 2126.15 1109.13 2126.15C1103.13 2126.15 1097.46 2127.49 1092.13 2130.15C1087.13 2132.49 1082.3 2135.65 1077.63 2139.65C1073.3 2143.65 1069.3 2148.15 1065.63 2153.15C1061.96 2157.82 1058.3 2162.49 1054.63 2167.15L1053.63 2168.15V2323.15C1054.3 2342.82 1064.3 2354.82 1083.63 2359.15L1083.13 2360.15H995.129L994.629 2359.15C1013.96 2354.82 1023.96 2342.82 1024.63 2323.15V2132.65C1023.96 2112.99 1013.96 2100.99 994.629 2096.65L995.129 2095.65H1053.63V2144.15C1056.63 2140.82 1060.96 2136.32 1066.63 2130.65C1072.63 2124.65 1079.13 2118.99 1086.13 2113.65C1093.46 2107.99 1101.13 2103.15 1109.13 2099.15C1117.46 2094.82 1125.46 2092.65 1133.13 2092.65H1137.13C1143.46 2093.32 1148.13 2095.82 1151.13 2100.15C1154.46 2104.49 1156.13 2108.99 1156.13 2113.65C1156.13 2116.99 1154.96 2120.15 1152.63 2123.15C1150.63 2126.15 1146.8 2127.99 1141.13 2128.65H1137.63C1135.96 2128.65 1133.96 2128.65 1131.63 2128.65C1129.63 2128.32 1127.3 2127.99 1124.63 2127.65C1122.63 2127.32 1120.46 2127.15 1118.13 2127.15C1116.13 2126.82 1113.8 2126.65 1111.13 2126.65ZM1199.25 2134.15C1194.58 2124.49 1188.92 2116.82 1182.25 2111.15C1175.58 2105.15 1166.92 2100.32 1156.25 2096.65V2095.65H1262.75V2096.65C1249.42 2099.65 1241.08 2104.49 1237.75 2111.15C1234.75 2117.15 1235.25 2124.82 1239.25 2134.15L1239.75 2134.65H1239.25L1314.75 2302.65L1389.75 2134.15C1393.75 2124.49 1394.08 2116.65 1390.75 2110.65C1387.08 2103.65 1379.08 2098.99 1366.75 2096.65V2095.65H1449.25V2096.65C1428.92 2103.32 1414.58 2115.82 1406.25 2134.15L1304.75 2361.65L1199.25 2134.15ZM1588.22 2360.65C1599.89 2357.99 1607.89 2353.82 1612.22 2348.15C1616.55 2342.15 1617.72 2334.82 1615.72 2326.15L1574.72 2218.15H1444.72L1405.72 2322.15C1398.72 2342.49 1407.39 2355.32 1431.72 2360.65H1349.22C1359.89 2356.99 1368.39 2351.99 1374.72 2345.65C1381.39 2339.32 1386.55 2331.65 1390.22 2322.65C1409.22 2271.65 1428.05 2221.65 1446.72 2172.65C1465.39 2123.65 1484.39 2073.49 1503.72 2022.15C1502.72 2014.15 1500.05 2006.65 1495.72 1999.65C1491.72 1992.32 1485.55 1987.65 1477.22 1985.65H1523.72L1650.72 2322.65C1658.05 2341.32 1671.55 2353.99 1691.22 2360.65H1588.22ZM1450.22 2203.65H1569.72L1509.72 2044.65L1450.22 2203.65ZM1810.38 2110.15C1786.38 2110.15 1761.21 2121.49 1734.88 2144.15V2448.15C1734.88 2467.49 1744.71 2479.49 1764.38 2484.15V2485.15H1675.88V2484.15C1695.55 2479.49 1705.38 2467.49 1705.38 2448.15V2132.65C1705.38 2113.32 1695.55 2101.32 1675.88 2096.65V2095.65H1734.88V2125.15C1763.55 2103.15 1792.21 2092.15 1820.88 2092.15C1837.88 2092.15 1853.21 2095.82 1866.88 2103.15C1880.88 2110.15 1892.88 2119.49 1902.88 2131.15C1912.88 2142.82 1920.71 2156.32 1926.38 2171.65C1932.38 2186.65 1936.05 2202.15 1937.38 2218.15C1938.71 2234.49 1937.71 2250.32 1934.38 2265.65C1931.38 2280.99 1926.38 2294.99 1919.38 2307.65C1900.05 2342.65 1871.55 2360.15 1833.88 2360.15C1805.88 2360.15 1777.05 2350.15 1747.38 2330.15L1747.88 2329.15C1771.88 2338.49 1793.71 2343.15 1813.38 2343.15C1843.71 2343.15 1866.55 2331.65 1881.88 2308.65C1888.88 2297.99 1894.05 2284.99 1897.38 2269.65C1900.71 2254.32 1901.88 2238.15 1900.88 2221.15C1899.88 2203.15 1896.55 2186.82 1890.88 2172.15C1885.21 2157.15 1877.71 2145.15 1868.38 2136.15C1850.38 2118.82 1831.05 2110.15 1810.38 2110.15ZM2093.09 2110.15C2069.09 2110.15 2043.93 2121.49 2017.59 2144.15V2448.15C2017.59 2467.49 2027.43 2479.49 2047.09 2484.15V2485.15H1958.59V2484.15C1978.26 2479.49 1988.09 2467.49 1988.09 2448.15V2132.65C1988.09 2113.32 1978.26 2101.32 1958.59 2096.65V2095.65H2017.59V2125.15C2046.26 2103.15 2074.93 2092.15 2103.59 2092.15C2120.59 2092.15 2135.93 2095.82 2149.59 2103.15C2163.59 2110.15 2175.59 2119.49 2185.59 2131.15C2195.59 2142.82 2203.43 2156.32 2209.09 2171.65C2215.09 2186.65 2218.76 2202.15 2220.09 2218.15C2221.43 2234.49 2220.43 2250.32 2217.09 2265.65C2214.09 2280.99 2209.09 2294.99 2202.09 2307.65C2182.76 2342.65 2154.26 2360.15 2116.59 2360.15C2088.59 2360.15 2059.76 2350.15 2030.09 2330.15L2030.59 2329.15C2054.59 2338.49 2076.43 2343.15 2096.09 2343.15C2126.43 2343.15 2149.26 2331.65 2164.59 2308.65C2171.59 2297.99 2176.76 2284.99 2180.09 2269.65C2183.43 2254.32 2184.59 2238.15 2183.59 2221.15C2182.59 2203.15 2179.26 2186.82 2173.59 2172.15C2167.93 2157.15 2160.43 2145.15 2151.09 2136.15C2133.09 2118.82 2113.76 2110.15 2093.09 2110.15Z" fill="black"/>
<path fill-rule="evenodd" clip-rule="evenodd" d="M1.94253 1984.23C3.67484 1982.25 4.74722 1981.83 10.0266 1981.34C19.4306 1980.51 173.441 1981.34 181.607 1982.33C189.857 1983.32 202.478 1987.45 212.789 1992.65C245.208 2008.91 268.8 2038.96 274.74 2071.49C275.482 2075.37 275.894 2083.62 275.812 2093.77C275.812 2111.44 274.987 2116.56 269.708 2131.01C259.726 2158.66 232.174 2185.9 203.797 2196.14C191.506 2200.6 176.163 2203.57 164.944 2203.57V2203.57C163.763 2203.57 163.368 2205.15 164.41 2205.71L169.069 2208.19C185.897 2217.19 202.065 2229 211.552 2239.15C216.336 2244.35 229.287 2261.44 237.949 2273.99V2273.99C241.16 2278.59 245.11 2283.18 247.591 2288.22C248.197 2289.45 248.856 2290.82 249.577 2292.32C254.027 2301.59 260.844 2305.78 272.096 2321.93C276.972 2330.49 283.413 2338.39 291.733 2346.38C296.187 2350.67 303.034 2356.2 306.828 2358.76C320.852 2368.09 360.091 2375.76 373.125 2377.75C380.961 2378.9 461.061 2386.66 467 2385.5C477.311 2383.44 490.824 2378.5 497.671 2368.26C503.28 2360.01 507.375 2346.97 511.5 2352.5C512.985 2354.56 514.334 2366.53 513.344 2370.16C512.579 2373.17 510.293 2377.19 506.247 2383.21C502.524 2388.75 497.8 2393.69 491.677 2396.35C483.528 2399.89 474.579 2401.78 470.366 2401.5C438.52 2401.5 387.434 2403.29 366.672 2402.25C361.284 2401.98 355.856 2401.51 350.511 2400.78C321.331 2396.79 279.826 2373.13 256.509 2349.19C244.795 2337.14 238.031 2328.89 211.964 2294.38C201.9 2281.01 191.754 2267.8 189.444 2265.07C162.717 2232.71 146.136 2220 116.275 2208.69V2208.69C110.543 2206.5 104.478 2205.32 98.3455 2205.2L79.4014 2204.81V2204.81C63.8692 2204.49 51.107 2217 51.107 2232.53V2295.53V2384.62C51.107 2386 51.8261 2387.28 53.0043 2387.99V2387.99C53.9942 2388.57 56.4689 2389.4 58.4487 2389.64C62.9032 2390.31 66.4503 2392.12 67.6877 2394.35C69.09 2396.99 67.9352 2401.28 65.2954 2403.1C63.2332 2404.5 60.9234 2404.59 34.8563 2404.59C7.5519 2404.59 6.64451 2404.5 4.33477 2402.85C1.11763 2400.46 0.127737 2397.24 1.69506 2394.43C3.0974 2391.79 5.8196 2390.39 11.099 2389.4V2389.4C14.0712 2388.8 15.7296 2386.7 15.8618 2383.67C16.7713 2362.84 17.2662 2271.51 17.1208 2147.43C16.9559 2066.86 16.5434 2000.32 16.2134 1999.58C15.3885 1997.93 12.0889 1996.36 9.3667 1996.36C6.14956 1996.36 1.94253 1994.05 0.870154 1991.74C-0.532189 1988.68 -0.284717 1986.79 1.94253 1984.23ZM241.661 2073.88C236.959 2040.2 214.109 2010.64 184.577 1999.83V1999.83C180.594 1998.35 176.382 1997.59 172.134 1997.57L116.687 1997.35L57.1356 1997.11C55.6131 1997.11 54.164 1997.77 53.1693 1998.92V1998.92C51.5251 2000.65 51.5195 2002.7 51.2745 2093.43V2093.43L51.272 2094.35L51.2117 2128.63C51.154 2161.38 77.7767 2187.91 110.524 2187.74L113.553 2187.72L113.667 2187.72C175.916 2187.31 176.084 2187.31 181.855 2185.49C211.882 2175.75 233.824 2149.42 241.248 2114.33C242.816 2107.23 243.063 2083.62 241.661 2073.88Z" fill="black"/>
<defs>
<filter id="filter0_d_5_34" x="683" y="0" width="716.023" height="2001.15" filterUnits="userSpaceOnUse" color-interpolation-filters="sRGB">
<feFlood flood-opacity="0" result="BackgroundImageFix"/>
<feColorMatrix in="SourceAlpha" type="matrix" values="0 0 0 0 0 0 0 0 0 0 0 0 0 0 0 0 0 0 127 0" result="hardAlpha"/>
<feOffset dx="10" dy="9"/>
<feGaussianBlur stdDeviation="10"/>
<feComposite in2="hardAlpha" operator="out"/>
<feColorMatrix type="matrix" values="0 0 0 0 0.195833 0 0 0 0 0.192782 0 0 0 0 0.181962 0 0 0 0.84 0"/>
<feBlend mode="normal" in2="BackgroundImageFix" result="effect1_dropShadow_5_34"/>
<feBlend mode="normal" in="SourceGraphic" in2="effect1_dropShadow_5_34" result="shape"/>
</filter>
</defs>
</svg>
