<svg width="1707" height="2002" viewBox="0 0 1707 2002" fill="none" xmlns="http://www.w3.org/2000/svg">
<path d="M812.597 165.25C808.997 165.517 797.264 166.317 786.597 167.117C632.197 178.45 480.464 234.184 353.264 326.317C278.464 380.584 211.931 447.517 157.931 523.25C-14.0693 764.317 -48.0693 1079.12 68.1974 1352.72C78.1974 1376.18 99.1307 1418.18 111.931 1440.45C212.597 1615.65 368.864 1748.18 557.664 1818.32C680.731 1864.05 815.931 1880.45 947.931 1865.78C1121.53 1846.32 1282.33 1775.52 1415.26 1659.92C1448.33 1631.12 1492.73 1584.58 1522.06 1547.65C1727.26 1290.05 1764.6 932.184 1617.13 637.517C1512.73 428.85 1329.13 272.45 1107.26 202.984C1050.2 185.117 992.864 173.784 928.597 167.65C908.597 165.784 827.797 164.05 812.597 165.25ZM920.731 327.65C984.597 334.45 1042.73 348.05 1098.6 369.384C1339.66 461.517 1510.06 678.45 1541.26 932.984C1571.66 1180.98 1467.53 1423.78 1266.06 1574.32C1184.86 1634.98 1088.6 1677.78 988.597 1697.65C939.264 1707.52 909.264 1710.32 853.264 1710.32C796.197 1710.32 766.464 1707.38 715.264 1697.12C424.331 1638.32 201.397 1397.38 165.264 1102.58C126.331 785.65 308.597 483.784 607.931 369.384C674.197 344.05 734.997 331.25 817.931 325.25C832.597 324.184 903.131 325.784 920.731 327.65Z" fill="white"/>
<path d="M793.931 341.117C710.331 348.85 633.931 369.784 559.264 405.65C421.531 471.917 308.331 584.85 241.931 722.45C204.331 800.317 182.598 880.85 175.931 966.984C174.198 990.05 174.198 1045.52 175.931 1068.58C183.798 1169.52 214.064 1268.45 263.931 1355.12C306.064 1428.45 365.931 1497.78 432.598 1550.58C538.597 1634.58 668.064 1684.98 803.931 1695.12C827.131 1696.85 879.397 1696.85 902.597 1695.12C1026.2 1685.92 1144.73 1643.38 1244.6 1572.45C1338.2 1505.92 1412.33 1418.98 1462.6 1317.12C1498.46 1244.18 1519.8 1170.05 1529.26 1085.12C1531.66 1063.92 1532.46 994.317 1530.73 969.517C1514.06 742.317 1386.73 540.717 1187.93 426.984C1103.8 378.85 1010.33 349.917 910.997 341.117C883.664 338.717 820.464 338.717 793.931 341.117Z" fill="white"/>
<g filter="url(#filter0_d_1_788)">
<path d="M309.918 99.1184C310.106 135.139 311.044 208.681 311.982 262.337C312.92 315.993 314.608 411.297 315.734 474.333C317.985 591.775 318.735 606.034 324.176 618.791L309.918 99.1184ZM309.918 99.1184C309.73 31.2046 308.792 13.5695 305.228 12.4438L309.918 99.1184ZM323.714 618.983C323.715 618.984 323.716 618.986 323.716 618.987L326.714 626.481L327.027 627.263L327.563 626.614L331.126 622.3L323.714 618.983ZM323.714 618.983C320.96 612.523 319.409 605.696 318.26 585.848C317.11 565.996 316.359 533.059 315.234 474.343L315.688 474.334L315.234 474.342C314.108 411.306 312.42 316.001 311.482 262.346C310.544 208.689 309.606 135.145 309.418 99.1211C309.324 65.1603 309.043 43.7861 308.34 30.7625C307.988 24.2466 307.532 19.8459 306.948 17.0121C306.656 15.5933 306.337 14.5968 305.999 13.9323C305.659 13.2637 305.339 13.0039 305.079 12.9213C304.934 12.877 304.783 12.8872 304.583 13.0197C304.361 13.1667 304.091 13.4602 303.779 13.975C303.158 15.002 302.469 16.7441 301.673 19.3887C300.086 24.6635 298.12 33.3654 295.399 46.6884L295.399 46.6895C291.847 63.8883 291.47 76.2004 289.969 203.246C288.562 317.219 286.92 406.477 285.02 471.252C283.121 536.012 280.963 576.336 278.519 592.413L278.025 592.338L278.519 592.414C277.156 601.299 275.353 608.288 273.133 613.352C270.919 618.399 268.249 621.625 265.093 622.823C261.901 624.034 258.382 623.113 254.638 620.28C250.897 617.449 246.849 612.656 242.522 605.929L242.518 605.923L237.828 598.419L237.75 598.295L237.752 598.149L240.003 376.772C241.316 255.017 243.005 133.817 243.756 107.359L243.756 107.357C244.6 81.7556 244.646 59.5835 244.037 43.3708C243.732 35.2632 243.264 28.6552 242.651 23.8574C242.345 21.4574 242.003 19.5225 241.632 18.0842C241.446 17.365 241.256 16.7802 241.062 16.3281C240.866 15.8687 240.682 15.5807 240.525 15.4238C240.168 15.067 239.83 14.861 239.515 14.7686C239.206 14.6782 238.888 14.6875 238.544 14.811C237.827 15.0685 236.988 15.8276 236.041 17.2472C234.162 20.0667 232.068 25.1648 229.724 32.667C228.425 36.8884 226.999 45.0775 225.451 57.327C223.905 69.5653 222.24 85.8214 220.458 106.151C216.894 146.808 212.861 203.741 208.359 277.375C206.858 303.079 203.481 355.986 200.854 394.634C189.597 563.297 191.106 646.523 206.47 710.602L206.47 710.604C214.713 745.635 225.566 769.004 242.946 789.187C279.226 831.295 301.214 884.487 306.851 943.304C307.182 946.755 307.463 960.493 307.701 984.307C307.938 1008.14 308.131 1042.09 308.284 1086C308.589 1173.83 308.729 1301.49 308.729 1467.71V1970.96L320.822 1971.5L320.822 1971.5L320.825 1971.5C327.928 1971.88 337.088 1971.5 341.369 1970.94C341.37 1970.94 341.37 1970.94 341.371 1970.94L349.004 1969.88L349.566 1450.27L350.129 930.219L350.129 930.164L350.141 930.111L354.08 912.289L354.081 912.286C365.352 862.319 383.581 823.969 411.221 791.628L411.223 791.625C435.344 763.764 447.513 734.22 455.758 683.435L455.759 683.433C464.941 628.713 465.508 534.208 457.816 419.022L457.718 417.513C455.618 385.441 451.391 320.884 448.436 272.686C442.995 187.137 439.103 131.518 435.797 94.8248C432.49 58.1173 429.773 40.3958 426.696 30.606C425.338 26.3441 424.124 22.925 423.01 20.2925C421.892 17.6503 420.89 15.8389 419.968 14.7622C419.046 13.6841 418.317 13.4601 417.689 13.6519C416.974 13.8704 416.154 14.6765 415.221 16.2618C415.06 16.538 414.886 17.0042 414.716 17.7075C414.547 18.4028 414.388 19.2988 414.24 20.4137C413.943 22.6432 413.695 25.7164 413.496 29.7489C413.098 37.812 412.898 49.6741 412.898 66.2168C412.898 99.3002 413.696 151.075 415.29 228.557L415.29 228.559C416.416 291.41 417.542 400.788 417.542 471.707V600.405V600.555L417.459 600.681L411.643 609.498L411.641 609.502C408.146 614.697 404.346 618.604 400.724 620.835C397.114 623.058 393.578 623.67 390.723 622.043C389.238 621.271 387.822 619.612 386.501 617.336C385.168 615.039 383.895 612.05 382.728 608.536C380.393 601.508 378.464 592.327 377.335 582.264C374.142 554.281 371.891 485.962 369.64 357.087C367.107 206.061 365.841 131.679 364.669 92.5203C363.535 54.6458 362.489 49.7557 360.477 40.3445L360.27 39.3759L360.724 39.2793L360.27 39.3751C357.831 27.8365 355.821 20.0856 354.148 15.6938C353.731 14.5983 353.339 13.723 352.971 13.0553C352.6 12.3805 352.271 11.9503 351.993 11.7135C351.723 11.4836 351.567 11.4855 351.474 11.5132C351.342 11.5529 351.129 11.7061 350.87 12.1382C350.367 12.9757 349.941 14.0774 349.573 18.0044C349.205 21.9277 348.901 28.6011 348.596 40.5273C347.986 64.3729 347.377 109.16 346.251 194.805C344.562 325.381 342.311 454.269 339.872 561.582C339.403 581.001 338.652 594.441 337.311 603.876C335.972 613.298 334.034 618.81 331.128 622.299L323.714 618.983Z" fill="black" stroke="white"/>
<path d="M651.472 14.5753L651.473 14.5748C659.336 11.1523 666.887 10.9771 673.902 13.8521C680.93 16.7323 687.472 22.6963 693.252 31.6458L651.472 14.5753ZM651.472 14.5753C647.756 16.1812 643.493 19.4033 639.011 23.8234C634.536 28.2372 629.87 33.8192 625.344 40.1106C616.292 52.6951 607.826 68.0852 602.591 82.5753C584.225 133.361 566.784 221.858 536.202 421.3C514.815 560.689 510.88 595.745 509.38 661.748C507.13 768.056 521.377 827.603 564.826 892.215C585.067 922.202 602.295 941.672 623.633 958.892C637.794 970.24 646.022 977.794 651.233 986.463C656.449 995.14 658.616 1004.89 660.774 1020.56C663.031 1036.55 664.39 1070.07 665.211 1149.35C666.032 1228.64 666.313 1353.73 666.407 1552.87V1971.3H682.792H699.176V1006.18V40.9028L693.253 31.6475L651.472 14.5753Z" fill="black" stroke="white"/>
</g>
<path d="M765.515 727.422C758.925 728.042 757.587 728.558 755.425 731.034C752.645 734.233 752.336 736.606 754.086 740.425C755.425 743.314 760.676 746.203 764.691 746.203C768.089 746.203 772.208 748.164 773.237 750.228C773.649 751.156 774.164 834.329 774.37 935.043C774.576 1111.09 773.752 1234.4 772.311 1235.95C771.899 1236.26 769.428 1236.98 766.853 1237.5C760.264 1238.74 756.866 1240.49 755.116 1243.79C753.159 1247.3 754.395 1251.32 758.411 1254.32C761.293 1256.38 762.426 1256.48 796.507 1256.48C829.043 1256.48 831.926 1256.38 834.5 1254.63C837.795 1252.36 839.236 1246.99 837.486 1243.69C835.941 1240.9 831.514 1238.63 825.954 1237.81C823.483 1237.5 820.394 1236.46 819.159 1235.74L816.79 1234.3V1120.17V1006.04L852.107 1006.76L887.32 1007.48L898.131 1011.61C935.403 1025.75 956.099 1041.64 989.459 1082.09C992.342 1085.5 1005.01 1102.01 1017.57 1118.72C1050.1 1161.86 1058.55 1172.18 1073.17 1187.24C1105.09 1220.06 1141.12 1243.28 1174.59 1252.46C1186.32 1255.76 1206.09 1256.9 1253.15 1256.9L1287.43 1257L1292.17 1246.89C1299.48 1231.1 1304.63 1218.72 1305.97 1213.45C1307.2 1208.91 1307.1 1208.29 1305.25 1205.71C1300.1 1198.8 1293.4 1200.76 1286.4 1211.08C1277.86 1223.88 1265.19 1232.85 1252.32 1235.43C1244.91 1236.88 1202.49 1236.88 1192.71 1235.43C1176.44 1232.96 1153.48 1223.36 1135.97 1211.7C1131.24 1208.5 1122.69 1201.59 1117.13 1196.22C1089.44 1169.6 1078.42 1143.7 1076.67 1101.18C1075.54 1075.28 1078.73 1056.6 1088.61 1031.11L1093.86 1017.6L1189.62 1017.8L1285.37 1018.11L1327.59 1119.76C1370.52 1223.15 1374.54 1233.06 1373.51 1235.64C1373.2 1236.46 1370.73 1237.39 1367.74 1237.81C1364.45 1238.22 1361.46 1239.46 1359.4 1241.21C1356.62 1243.48 1356.21 1244.41 1356.52 1248.02C1356.73 1251.12 1357.55 1252.67 1359.71 1254.32C1362.6 1256.38 1363.63 1256.48 1399.15 1256.48H1435.6L1438.27 1253.7C1444.25 1247.71 1439.92 1239.35 1430.04 1237.91C1421.39 1236.57 1419.43 1233.27 1396.78 1179.61C1383.81 1148.86 1241.72 807.292 1227.2 771.898C1222.88 761.372 1219.37 751.982 1219.37 751.053C1219.37 748.886 1224.52 746.203 1228.64 746.203C1232.55 746.203 1237.5 743.727 1238.94 741.147C1240.28 738.567 1240.28 734.233 1238.94 731.86C1236.67 727.526 1233.07 727.113 1195.18 727.113C1162.13 727.113 1158.83 727.319 1156.26 728.97C1149.67 733.304 1151.01 741.663 1158.83 745.068C1161.3 746.1 1164.39 747.235 1165.83 747.545C1167.28 747.854 1169.75 749.505 1171.29 751.156L1174.07 754.046L1137.93 847.847C1098.91 949.387 1072.96 1018.42 1065.65 1039.89C1060.4 1055.36 1057.83 1069.4 1056.8 1088.9L1056.18 1102.11L1050 1093.24C1039.19 1077.55 1023.02 1056.19 1017.05 1049.69C1005.21 1037 985.031 1022.24 964.027 1010.99L953.216 1005.21H958.879C972.882 1005.21 992.033 1001.5 1007.37 995.926C1042.79 983.13 1077.18 949.077 1089.64 914.508C1096.23 896.45 1097.26 890.052 1097.26 867.969C1097.36 855.276 1096.85 844.957 1095.92 840.107C1088.51 799.45 1059.06 761.888 1018.6 741.56C1005.73 735.059 989.974 729.899 979.677 728.661C969.484 727.422 777.253 726.39 765.515 727.422ZM983.384 750.537C1020.24 764.055 1048.77 800.998 1054.63 843.1C1056.38 855.276 1056.08 884.789 1054.12 893.664C1044.85 937.52 1017.46 970.438 979.986 982.614C972.779 984.885 972.573 984.885 894.733 985.401L816.79 985.813L816.996 868.691C817.305 754.149 817.305 751.569 819.364 749.402L821.321 747.132L898.646 747.442L975.868 747.751L983.384 750.537ZM1200.64 816.064C1208.67 835.257 1228.85 883.654 1245.53 923.692L1275.8 996.442L1272.09 997.268C1267.77 998.196 1103.54 997.784 1102.61 996.855C1101.48 995.72 1183.96 781.288 1185.5 781.288C1185.81 781.288 1192.6 796.973 1200.64 816.064Z" fill="black"/>
<defs>
<filter id="filter0_d_1_788" x="183" y="-3.05176e-05" width="546.677" height="2001.15" filterUnits="userSpaceOnUse" color-interpolation-filters="sRGB">
<feFlood flood-opacity="0" result="BackgroundImageFix"/>
<feColorMatrix in="SourceAlpha" type="matrix" values="0 0 0 0 0 0 0 0 0 0 0 0 0 0 0 0 0 0 127 0" result="hardAlpha"/>
<feOffset dx="10" dy="9"/>
<feGaussianBlur stdDeviation="10"/>
<feComposite in2="hardAlpha" operator="out"/>
<feColorMatrix type="matrix" values="0 0 0 0 0.195833 0 0 0 0 0.192782 0 0 0 0 0.181962 0 0 0 0.84 0"/>
<feBlend mode="normal" in2="BackgroundImageFix" result="effect1_dropShadow_1_788"/>
<feBlend mode="normal" in="SourceGraphic" in2="effect1_dropShadow_1_788" result="shape"/>
</filter>
</defs>
</svg>
