<svg width="2845" height="672" viewBox="0 0 2845 672" fill="none" xmlns="http://www.w3.org/2000/svg">
<path d="M527.318 469.12C562.301 469.12 599.201 455.254 638.021 427.52L638.661 428.16C621.598 449.92 600.695 466.774 575.951 478.72C551.635 490.24 525.826 496 498.523 496H490.204C473.141 494.72 457.357 490.88 442.852 484.48C428.348 477.654 415.336 468.906 403.818 458.24C392.299 447.574 382.275 435.2 373.742 421.12C365.637 407.04 359.024 392.106 353.905 376.32C346.226 351.146 343.667 325.546 346.226 299.52C348.36 278.186 354.119 258.774 363.504 241.28C372.89 223.36 384.834 208 399.338 195.2C414.27 182.4 431.121 172.586 449.89 165.76C468.661 158.506 488.498 154.88 509.401 154.88C529.878 154.88 548.863 158.506 566.352 165.76C583.843 172.586 598.987 182.614 611.785 195.84C639.089 223.146 652.099 260.266 650.819 307.2V307.84H386.54C386.54 327.466 389.74 347.094 396.139 366.72C402.965 385.92 412.564 403.2 424.934 418.56C437.306 433.494 452.024 445.654 469.087 455.04C486.578 464.426 505.989 469.12 527.318 469.12ZM613.705 288.64C612.425 266.454 608.373 247.68 601.547 232.32C594.722 216.96 586.403 204.586 576.591 195.2C566.78 185.386 555.902 178.346 543.956 174.08C532.011 169.814 520.493 167.68 509.401 167.68C496.177 167.68 482.739 170.24 469.087 175.36C455.863 180.48 443.491 188.16 431.973 198.4C420.882 208.64 411.284 221.226 403.178 236.16C395.499 251.094 390.38 268.586 387.82 288.64H613.705ZM741.89 276.48C751.702 284.586 763.007 291.2 775.805 296.32C789.03 301.014 802.254 305.92 815.479 311.04C825.291 314.88 835.103 318.934 844.914 323.2C854.726 327.466 863.899 332.16 872.43 337.28C881.388 342.4 889.281 348.16 896.106 354.56C902.933 360.534 908.478 367.574 912.744 375.68C921.276 392.746 923.836 409.386 920.422 425.6C917.01 441.814 907.838 455.466 892.907 466.56C880.109 476.374 864.539 484.054 846.194 489.6C827.85 494.72 808.44 497.28 787.963 497.28C749.996 497.28 715.228 486.4 683.659 464.64H683.019V413.44L684.299 415.36C697.951 435.84 714.162 452.694 732.931 465.92C752.128 478.72 774.312 485.12 799.481 485.12C814.839 485.12 829.77 482.56 844.274 477.44C858.779 471.894 871.15 464.426 881.388 455.04C895.04 443.52 901.439 430.72 900.585 416.64C900.159 404.266 892.054 392.32 876.269 380.8C865.178 372.266 852.593 365.44 838.515 360.32C824.437 355.2 810.359 350.294 796.282 345.6C783.484 341.76 771.325 337.706 759.807 333.44C748.716 328.746 738.478 323.2 729.092 316.8C719.707 310.4 711.388 302.72 704.136 293.76C697.311 284.374 691.765 272.854 687.498 259.2C683.659 245.546 682.807 231.894 684.939 218.24C687.498 205.44 692.405 194.346 699.657 184.96C706.909 175.574 715.442 167.894 725.253 161.92C735.491 155.52 746.583 151.04 758.527 148.48C770.899 145.494 783.057 144 795.002 144C813.773 144 832.543 146.986 851.313 152.96C870.51 158.506 887.787 166.614 903.145 177.28V228.48L901.865 226.56C895.894 217.6 888.427 208.854 879.469 200.32C870.938 191.786 861.551 184.32 851.313 177.92C841.075 171.094 830.196 165.76 818.678 161.92C807.16 158.08 795.429 156.16 783.484 156.16C775.805 156.16 767.7 157.44 759.167 160C750.636 162.134 742.744 165.546 735.491 170.24C728.666 174.506 722.907 180.054 718.214 186.88C713.522 193.706 710.962 201.6 710.535 210.56C710.109 237.44 720.561 259.414 741.89 276.48ZM1136.6 469.12C1171.58 469.12 1208.48 455.254 1247.3 427.52L1247.94 428.16C1230.88 449.92 1209.98 466.774 1185.23 478.72C1160.92 490.24 1135.11 496 1107.8 496H1099.48C1082.42 494.72 1066.64 490.88 1052.13 484.48C1037.63 477.654 1024.62 468.906 1013.1 458.24C1001.58 447.574 991.555 435.2 983.023 421.12C974.918 407.04 968.305 392.106 963.186 376.32C955.507 351.146 952.947 325.546 955.507 299.52C957.64 278.186 963.399 258.774 972.784 241.28C982.17 223.36 994.115 208 1008.62 195.2C1023.55 182.4 1040.4 172.586 1059.17 165.76C1077.94 158.506 1097.78 154.88 1118.68 154.88C1139.16 154.88 1158.14 158.506 1175.63 165.76C1193.12 172.586 1208.27 182.614 1221.07 195.84C1248.37 223.146 1261.38 260.266 1260.1 307.2V307.84H995.821C995.821 327.466 999.02 347.094 1005.42 366.72C1012.25 385.92 1021.84 403.2 1034.21 418.56C1046.59 433.494 1061.3 445.654 1078.37 455.04C1095.86 464.426 1115.27 469.12 1136.6 469.12ZM1222.99 288.64C1221.71 266.454 1217.65 247.68 1210.83 232.32C1204 216.96 1195.68 204.586 1185.87 195.2C1176.06 185.386 1165.18 178.346 1153.24 174.08C1141.29 169.814 1129.77 167.68 1118.68 167.68C1105.46 167.68 1092.02 170.24 1078.37 175.36C1065.14 180.48 1052.77 188.16 1041.25 198.4C1030.16 208.64 1020.56 221.226 1012.46 236.16C1004.78 251.094 999.66 268.586 997.1 288.64H1222.99ZM1422.03 197.76C1421.6 197.334 1420.75 197.12 1419.47 197.12C1411.79 197.12 1404.53 198.826 1397.71 202.24C1391.31 205.226 1385.13 209.28 1379.15 214.4C1373.61 219.52 1368.49 225.28 1363.8 231.68C1359.1 237.654 1354.41 243.626 1349.72 249.6L1348.44 250.88V449.28C1349.3 474.454 1362.09 489.814 1386.83 495.36L1386.19 496.64H1273.57L1272.93 495.36C1297.67 489.814 1310.47 474.454 1311.32 449.28V205.44C1310.47 180.266 1297.67 164.906 1272.93 159.36L1273.57 158.08H1348.44V220.16C1352.28 215.894 1357.82 210.134 1365.08 202.88C1372.75 195.2 1381.07 187.946 1390.03 181.12C1399.41 173.866 1409.23 167.68 1419.47 162.56C1430.13 157.014 1440.37 154.24 1450.18 154.24H1455.3C1463.4 155.094 1469.38 158.294 1473.22 163.84C1477.48 169.386 1479.62 175.146 1479.62 181.12C1479.62 185.386 1478.12 189.44 1475.14 193.28C1472.58 197.12 1467.68 199.466 1460.42 200.32H1455.94C1453.8 200.32 1451.24 200.32 1448.26 200.32C1445.7 199.894 1442.72 199.466 1439.3 199.04C1436.74 198.614 1433.97 198.4 1430.99 198.4C1428.43 197.974 1425.44 197.76 1422.03 197.76ZM1534.8 207.36C1528.83 194.986 1521.58 185.174 1513.05 177.92C1504.51 170.24 1493.43 164.054 1479.77 159.36V158.08H1616.07V159.36C1599.01 163.2 1588.34 169.386 1584.08 177.92C1580.24 185.6 1580.88 195.414 1585.99 207.36L1586.63 208H1585.99L1682.62 423.04L1778.61 207.36C1783.72 194.986 1784.15 184.96 1779.88 177.28C1775.19 168.32 1764.95 162.346 1749.17 159.36V158.08H1854.75V159.36C1828.73 167.894 1810.38 183.894 1799.72 207.36L1669.82 498.56L1534.8 207.36ZM2032.61 497.28C2047.54 493.866 2057.78 488.534 2063.32 481.28C2068.86 473.6 2070.36 464.214 2067.8 453.12L2015.33 314.88H1848.96L1799.04 448C1790.08 474.026 1801.18 490.454 1832.32 497.28H1726.73C1740.39 492.586 1751.27 486.186 1759.37 478.08C1767.91 469.974 1774.51 460.16 1779.21 448.64C1803.52 383.36 1827.62 319.36 1851.52 256.64C1875.41 193.92 1899.73 129.706 1924.46 64C1923.18 53.76 1919.77 44.16 1914.23 35.2C1909.11 25.8134 1901.21 19.84 1890.55 17.28H1950.06L2112.6 448.64C2121.98 472.534 2139.25 488.746 2164.43 497.28H2032.61ZM1855.99 296.32H2008.93L1932.14 92.8L1855.99 296.32ZM2316.93 176.64C2286.21 176.64 2254 191.146 2220.3 220.16V609.28C2220.3 634.026 2232.88 649.386 2258.06 655.36V656.64H2144.79V655.36C2169.97 649.386 2182.55 634.026 2182.55 609.28V205.44C2182.55 180.694 2169.97 165.334 2144.79 159.36V158.08H2220.3V195.84C2257 167.68 2293.67 153.6 2330.37 153.6C2352.12 153.6 2371.74 158.294 2389.24 167.68C2407.15 176.64 2422.51 188.586 2435.31 203.52C2448.11 218.454 2458.13 235.734 2465.39 255.36C2473.06 274.56 2477.76 294.4 2479.46 314.88C2481.17 335.786 2479.89 356.054 2475.62 375.68C2471.78 395.306 2465.39 413.226 2456.43 429.44C2431.69 474.24 2395.21 496.64 2347 496.64C2311.17 496.64 2274.27 483.84 2236.3 458.24L2236.94 456.96C2267.66 468.906 2295.59 474.88 2320.77 474.88C2359.58 474.88 2388.81 460.16 2408.43 430.72C2417.39 417.066 2424.01 400.426 2428.27 380.8C2432.53 361.174 2434.03 340.48 2432.75 318.72C2431.47 295.68 2427.21 274.774 2419.95 256C2412.7 236.8 2403.1 221.44 2391.16 209.92C2368.12 187.734 2343.38 176.64 2316.93 176.64ZM2678.74 176.64C2648.03 176.64 2615.83 191.146 2582.12 220.16V609.28C2582.12 634.026 2594.71 649.386 2619.87 655.36V656.64H2506.61V655.36C2531.78 649.386 2544.36 634.026 2544.36 609.28V205.44C2544.36 180.694 2531.78 165.334 2506.61 159.36V158.08H2582.12V195.84C2618.81 167.68 2655.5 153.6 2692.18 153.6C2713.94 153.6 2733.57 158.294 2751.05 167.68C2768.97 176.64 2784.32 188.586 2797.12 203.52C2809.92 218.454 2819.95 235.734 2827.2 255.36C2834.88 274.56 2839.57 294.4 2841.28 314.88C2842.99 335.786 2841.71 356.054 2837.44 375.68C2833.6 395.306 2827.2 413.226 2818.24 429.44C2793.5 474.24 2757.03 496.64 2708.82 496.64C2672.98 496.64 2636.09 483.84 2598.11 458.24L2598.75 456.96C2629.47 468.906 2657.42 474.88 2682.58 474.88C2721.41 474.88 2750.63 460.16 2770.25 430.72C2779.21 417.066 2785.82 400.426 2790.08 380.8C2794.36 361.174 2795.84 340.48 2794.56 318.72C2793.28 295.68 2789.02 274.774 2781.77 256C2774.52 236.8 2764.92 221.44 2752.97 209.92C2729.93 187.734 2705.19 176.64 2678.74 176.64Z" fill="black"/>
<path fill-rule="evenodd" clip-rule="evenodd" d="M2.48605 15.4529C4.70307 12.917 6.0755 12.3886 12.8321 11.7546C24.8673 10.6979 221.97 11.7546 232.421 13.0226C242.979 14.2907 259.132 19.574 272.328 26.2311C313.818 47.0477 344.011 85.5108 351.613 127.144C352.562 132.11 353.09 142.676 352.985 155.674C352.985 178.287 351.929 184.838 345.173 203.331C332.398 238.729 297.137 273.6 260.82 286.702C245.09 292.408 225.454 296.212 211.096 296.212C209.584 296.212 209.079 298.235 210.412 298.947L216.375 302.13C237.911 313.647 258.603 328.758 270.745 341.755C276.867 348.412 293.442 370.286 304.528 386.348C308.637 392.243 313.692 398.115 316.867 404.563C317.643 406.136 318.486 407.892 319.409 409.814C325.104 421.672 333.829 427.036 348.229 447.716C354.469 458.665 362.713 468.782 373.361 479.004C379.061 484.498 387.824 491.578 392.679 494.854C410.627 506.794 460.845 516.622 477.526 519.158C487.555 520.637 590.067 530.561 597.668 529.083C610.864 526.441 628.158 520.123 636.92 507.02C644.099 496.453 649.34 479.762 654.619 486.843C656.519 489.484 658.246 504.801 656.979 509.45C656 513.294 653.074 518.446 647.896 526.152C643.131 533.243 637.085 539.567 629.249 542.971C618.82 547.5 607.367 549.917 601.975 549.563C561.219 549.563 495.839 551.854 469.268 550.528C462.372 550.184 455.425 549.576 448.585 548.641C411.24 543.535 358.122 513.249 328.281 482.611C313.289 467.183 304.633 456.617 271.272 412.447C258.392 395.329 245.407 378.422 242.451 374.935C208.246 333.513 187.025 317.24 148.809 302.764C141.473 299.967 133.711 298.455 125.863 298.294L101.618 297.797C81.7399 297.391 65.4068 313.397 65.4068 333.283V413.926V527.951C65.4068 529.718 66.3271 531.356 67.835 532.274C69.1019 533.014 72.269 534.071 74.8028 534.388C80.5036 535.233 85.0432 537.558 86.6269 540.411C88.4215 543.793 86.9436 549.286 83.5652 551.612C80.926 553.408 77.9699 553.514 44.6092 553.514C9.66494 553.514 8.50366 553.408 5.54765 551.295C1.43035 548.23 0.163478 544.109 2.16934 540.517C3.96406 537.135 7.44794 535.338 14.2045 534.071C18.0084 533.309 20.1308 530.615 20.3 526.739C21.4639 500.076 22.0973 383.171 21.9112 224.358C21.7002 121.227 21.1723 36.0583 20.7499 35.1072C19.6942 32.9938 15.4714 30.9861 11.9875 30.9861C7.87022 30.9861 2.48605 28.0274 1.11362 25.0687C-0.681097 21.1591 -0.364381 18.7287 2.48605 15.4529ZM309.278 130.208C303.261 87.0958 274.017 49.2667 236.222 35.4243C231.125 33.5369 225.734 32.56 220.297 32.5383L149.336 32.2542L73.1223 31.9495C71.1738 31.9416 69.3192 32.7864 68.0462 34.2619C65.9419 36.4734 65.9348 39.1047 65.6212 155.227V155.228L65.618 156.413L65.5408 200.293C65.467 242.209 99.5388 276.166 141.449 275.945L145.325 275.924L145.471 275.923C225.138 275.396 225.353 275.395 232.738 273.071C271.167 260.603 299.248 226.894 308.75 181.985C310.756 172.899 311.073 142.676 309.278 130.208Z" fill="black"/>
</svg>
